<svg xmlns="http://www.w3.org/2000/svg" width="512" height="512" viewBox="0 0 512 512"><g transform="translate(-320 -877)"><rect width="512" height="512" transform="translate(320 877)" fill="#304ffe"/><g transform="translate(368 904.809)"><rect width="272" height="153" transform="translate(72 47.191)" fill="rgba(255,255,255,0)" stroke="#fff" stroke-width="2"/><rect width="88" height="16" rx="8" transform="translate(162.667 89.096)" fill="#fff"/><rect width="88" height="3" rx="1.5" transform="translate(162.667 121.096)" fill="#fff"/><rect width="88" height="3" rx="1.5" transform="translate(162.667 138.096)" fill="#fff"/><rect width="88" height="3" rx="1.5" transform="translate(162.667 155.096)" fill="#fff"/></g><g transform="translate(368 1057.809)"><rect width="272" height="56" transform="translate(72 47.191)" fill="rgba(255,255,255,0)" stroke="#fff" stroke-width="2"/><rect width="40" height="40" rx="20" transform="translate(116 55.191)" fill="rgba(255,255,255,0)" stroke="#fff" stroke-width="2"/><rect width="40" height="40" rx="20" transform="translate(188 55.191)" fill="rgba(255,255,255,0)" stroke="#fff" stroke-width="2"/><rect width="40" height="40" rx="20" transform="translate(260 55.191)" fill="rgba(255,255,255,0)" stroke="#fff" stroke-width="2"/><line x2="32" transform="translate(156.5 75.691)" fill="none" stroke="#fff" stroke-width="2"/><line x2="32" transform="translate(228.5 75.691)" fill="none" stroke="#fff" stroke-width="2"/></g><g transform="translate(368 1113.809)"><rect width="272" height="153" transform="translate(72 47.191)" fill="rgba(255,255,255,0)" stroke="#fff" stroke-width="2"/><rect width="136" height="153" transform="translate(72 47.191)" fill="rgba(255,255,255,0)" stroke="#fff" stroke-width="2" opacity="0"/><rect width="88" height="16" rx="8" transform="translate(96 89.096)" fill="#fff"/><rect width="88" height="3" rx="1.5" transform="translate(96 121.096)" fill="#fff"/><rect width="88" height="3" rx="1.5" transform="translate(96 138.096)" fill="#fff"/><rect width="88" height="3" rx="1.5" transform="translate(96 155.096)" fill="#fff"/><g transform="translate(136)"><rect width="136" height="153" transform="translate(72 47.191)" fill="rgba(255,255,255,0)" stroke="#fff" stroke-width="2" opacity="0"/><rect width="88" height="16" rx="8" transform="translate(96 89.096)" fill="#fff"/><rect width="88" height="3" rx="1.5" transform="translate(96 121.096)" fill="#fff"/><rect width="88" height="3" rx="1.5" transform="translate(96 138.096)" fill="#fff"/><rect width="88" height="3" rx="1.5" transform="translate(96 155.096)" fill="#fff"/></g></g></g></svg>