<svg xmlns="http://www.w3.org/2000/svg" width="512" height="512" viewBox="0 0 512 512"><g transform="translate(-320 -877)"><rect width="512" height="512" transform="translate(320 877)" fill="#304ffe"/><rect width="257" height="384" transform="translate(448 941)" fill="none" stroke="#fff" stroke-linecap="round" stroke-linejoin="round" stroke-width="2"/><rect width="257" height="192" transform="translate(448 1133)" fill="#fff"/><g transform="translate(0 -33)"><rect width="116.44" height="6" rx="3" transform="translate(489.17 1301)" fill="#304ffe"/><rect width="174.66" height="6" rx="3" transform="translate(489.17 1273)" fill="#304ffe"/><rect width="174.66" height="6" rx="3" transform="translate(489.17 1245)" fill="#304ffe"/><rect width="174.66" height="6" rx="3" transform="translate(489.17 1217)" fill="#304ffe"/></g><rect width="257" height="192" transform="translate(448 941)" fill="none"/><path d="M-595-7309.714a47.7,47.7,0,0,1-18.684-3.772,47.831,47.831,0,0,1-15.257-10.287,47.825,47.825,0,0,1-10.287-15.257A47.7,47.7,0,0,1-643-7357.714a47.7,47.7,0,0,1,3.772-18.684,47.835,47.835,0,0,1,10.287-15.257,47.844,47.844,0,0,1,15.257-10.288A47.7,47.7,0,0,1-595-7405.714a48.143,48.143,0,0,1,12.313,1.594,47.744,47.744,0,0,1,11.127,4.509l-24.44,41.9h49a48.092,48.092,0,0,0-24.56-41.9L-548-7440l48,82.286h-47a47.708,47.708,0,0,1-3.772,18.684,47.825,47.825,0,0,1-10.287,15.257,47.831,47.831,0,0,1-15.257,10.287A47.7,47.7,0,0,1-595-7309.714Z" transform="translate(1148 8411.857)" fill="#fff"/></g></svg>